<svg width="512" height="512" viewBox="0 0 512 512" fill="none" xmlns="http://www.w3.org/2000/svg">
<rect y="2" width="512" height="510" rx="118" fill="#FC3F1D"/>
<path d="M104.034 423.098C102.299 423.098 100.801 422.469 99.539 421.21C98.2773 419.951 97.6465 418.456 97.6465 416.725V306.728C97.6465 304.997 98.2773 303.503 99.539 302.244C100.801 300.984 102.299 300.355 104.034 300.355H146.38C148.115 300.355 149.613 300.984 150.875 302.244C152.136 303.503 152.767 304.997 152.767 306.728V381.082L138.336 376.834L185.65 304.368C186.439 303.109 187.385 302.165 188.489 301.535C189.751 300.748 191.091 300.355 192.511 300.355H230.125C231.861 300.355 233.358 300.984 234.62 302.244C235.882 303.503 236.513 304.997 236.513 306.728V416.725C236.513 418.456 235.882 419.951 234.62 421.21C233.358 422.469 231.861 423.098 230.125 423.098H187.779C186.045 423.098 184.546 422.469 183.285 421.21C182.023 419.951 181.392 418.456 181.392 416.725V342.371L195.823 346.62L148.509 419.086C147.72 420.345 146.695 421.367 145.434 422.154C144.33 422.783 143.068 423.098 141.648 423.098H104.034ZM170.273 284.776C159.707 284.776 150.954 283.124 144.014 279.819C137.232 276.515 132.107 272.03 128.637 266.365C125.325 260.7 123.669 254.248 123.669 247.009C123.669 245.75 123.985 244.728 124.615 243.941C125.404 242.996 126.587 242.524 128.164 242.524H156.316C157.735 242.524 158.839 242.996 159.628 243.941C160.416 244.728 160.811 245.75 160.811 247.009C160.811 249.999 161.441 252.517 162.703 254.563C163.965 256.608 166.488 257.631 170.273 257.631C174.058 257.631 176.582 256.608 177.844 254.563C179.105 252.517 179.736 249.999 179.736 247.009C179.736 245.75 180.13 244.728 180.919 243.941C181.708 242.996 182.812 242.524 184.231 242.524H212.383C213.802 242.524 214.906 242.996 215.695 243.941C216.484 244.728 216.878 245.75 216.878 247.009C216.878 254.248 215.142 260.7 211.673 266.365C208.361 272.03 203.236 276.515 196.296 279.819C189.514 283.124 180.84 284.776 170.273 284.776ZM259.244 423.098C257.983 423.098 256.878 422.626 255.932 421.682C254.985 420.738 254.512 419.637 254.512 418.377V305.076C254.512 303.817 254.985 302.716 255.932 301.772C256.878 300.827 257.983 300.355 259.244 300.355H299.697C302.852 300.355 305.375 301.929 307.267 305.076L332.817 347.092L358.366 305.076C360.259 301.929 362.783 300.355 365.936 300.355H406.39C407.809 300.355 408.992 300.827 409.938 301.772C410.885 302.716 411.358 303.817 411.358 305.076V418.377C411.358 419.637 410.885 420.738 409.938 421.682C408.992 422.626 407.809 423.098 406.39 423.098H361.915C360.495 423.098 359.312 422.626 358.366 421.682C357.578 420.738 357.183 419.637 357.183 418.377V356.062L371.378 360.074L345.355 401.382C344.567 402.799 343.699 403.9 342.753 404.687C341.806 405.474 340.545 405.867 338.968 405.867H326.666C325.405 405.867 324.222 405.552 323.117 404.923C322.014 404.136 320.988 402.956 320.042 401.382L294.492 359.838L308.45 356.062V418.377C308.45 419.637 307.977 420.738 307.031 421.682C306.084 422.626 304.981 423.098 303.719 423.098H259.244Z" fill="white"/>
<path d="M180.221 222.816C167.92 222.816 157.747 221.557 149.704 219.04C141.818 216.522 135.589 213.296 131.015 209.362C126.599 205.428 123.366 201.336 121.316 197.088C119.423 192.682 118.161 188.747 117.53 185.285C117.215 184.184 117.53 183.24 118.477 182.453C119.423 181.666 120.369 181.273 121.316 181.273H162.715C164.765 181.273 166.185 181.588 166.973 182.217C167.762 182.846 168.551 183.476 169.339 184.105C170.285 184.734 171.468 185.364 172.888 185.994C174.307 186.623 176.594 186.938 179.748 186.938C182.114 186.938 184.006 186.702 185.426 186.23C186.845 185.601 187.792 184.813 188.265 183.869C188.896 182.768 189.211 181.509 189.211 180.092C189.211 178.361 188.58 176.945 187.318 175.844C186.214 174.584 183.612 173.955 179.512 173.955H166.027C164.608 173.955 163.425 173.404 162.479 172.303C161.532 171.202 161.059 170.022 161.059 168.762V149.171C161.059 147.911 161.532 146.731 162.479 145.63C163.425 144.529 164.608 143.978 166.027 143.978H179.512C183.139 143.978 185.505 143.427 186.609 142.325C187.713 141.224 188.265 139.729 188.265 137.841C188.265 136.581 187.949 135.48 187.318 134.536C186.688 133.592 185.741 132.884 184.48 132.411C183.376 131.939 181.798 131.703 179.748 131.703C176.752 131.703 174.465 131.939 172.888 132.411C171.468 132.884 170.128 133.671 168.866 134.772C168.077 135.401 167.289 136.031 166.5 136.66C165.712 137.289 164.292 137.604 162.242 137.604H122.262C121.158 137.604 120.212 137.211 119.423 136.424C118.634 135.637 118.319 134.693 118.477 133.592C119.108 130.13 120.448 126.195 122.498 121.79C124.549 117.384 127.782 113.213 132.198 109.279C136.771 105.188 142.922 101.883 150.65 99.3653C158.378 96.6901 168.235 95.3525 180.221 95.3525C195.046 95.3525 206.874 96.8475 215.707 99.8374C224.696 102.67 231.163 106.761 235.105 112.112C239.048 117.305 241.02 123.521 241.02 130.759C241.02 135.48 239.837 140.201 237.471 144.922C235.105 149.643 231.005 153.34 225.17 156.016C232.424 158.533 237.314 162.704 239.837 168.526C242.518 174.191 243.859 179.777 243.859 185.285C243.859 192.367 241.414 198.74 236.525 204.405C231.636 210.07 224.46 214.555 214.997 217.86C205.534 221.164 193.942 222.816 180.221 222.816ZM301.737 222.816C292.747 222.816 284.783 221.164 277.843 217.86C270.903 214.555 265.462 210.07 261.52 204.405C257.735 198.74 255.842 192.367 255.842 185.285C255.842 173.798 260.494 164.829 269.8 158.376C279.263 151.767 291.88 147.125 307.651 144.45L332.727 140.437V140.201C332.727 136.109 332.333 133.12 331.544 131.231C330.914 129.343 328.942 128.399 325.63 128.399C323.422 128.399 321.608 128.871 320.189 129.815C318.927 130.602 317.508 131.782 315.931 133.356C314.196 135.087 311.988 135.952 309.307 135.952H269.09C267.513 135.952 266.172 135.48 265.068 134.536C264.122 133.592 263.728 132.332 263.885 130.759C264.043 127.77 265.305 124.307 267.671 120.373C270.036 116.281 273.664 112.348 278.553 108.571C283.6 104.794 289.987 101.647 297.715 99.1292C305.601 96.6115 315.064 95.3525 326.103 95.3525C336.828 95.3525 346.132 96.5328 354.018 98.8932C362.062 101.096 368.686 104.401 373.89 108.807C379.095 113.056 382.959 118.406 385.482 124.858C388.164 131.152 389.504 138.313 389.504 146.338V214.083C389.504 215.814 388.873 217.308 387.611 218.568C386.349 219.827 384.852 220.456 383.117 220.456H341.717C339.982 220.456 338.484 219.827 337.222 218.568C335.96 217.308 335.329 215.814 335.329 214.083V207.474C333.121 210.621 330.282 213.375 326.813 215.735C323.501 217.939 319.716 219.669 315.458 220.928C311.199 222.187 306.625 222.816 301.737 222.816ZM318.06 187.882C321.215 187.882 323.895 187.253 326.103 185.994C328.469 184.734 330.282 182.768 331.544 180.092C332.806 177.26 333.437 173.798 333.437 169.706V169.47L319.479 172.539C315.378 173.483 312.619 174.742 311.199 176.316C309.78 177.889 309.07 179.541 309.07 181.273C309.07 182.374 309.386 183.476 310.017 184.577C310.805 185.521 311.83 186.309 313.092 186.938C314.511 187.567 316.167 187.882 318.06 187.882Z" fill="white"/>
</svg>
